<?xml version="1.0" encoding="utf-8"?><svg version="1.1" xmlns="http://www.w3.org/2000/svg" viewBox="0 0 38 42"><g><g><path fill="#fff" d="M37.4,22.3h-0.8c-0.1,0-1.8,0-3.1-1.3l-3.8-3.8c-0.3-0.3-0.5-0.4-0.8-0.4l0,0c-0.2,0-0.5,0.1-0.7,0.4L27,18.3c-0.1,0.1-0.3,0.2-0.4,0.2l0,0c-0.1,0-0.3-0.1-0.4-0.2c0,0-1.9-1.9-2.7-2.7c-0.3-0.3-0.5-0.4-0.7-0.4l0,0c-0.2,0-0.5,0.1-0.7,0.4l-1.2,1.1c-0.2,0.2-0.6,0.2-0.8,0l-3.4-3.4l-5,5c-0.1,0.1-0.3,0.2-0.4,0.2l0,0c-0.1,0-0.3-0.1-0.4-0.2l-1.2-1.2c-0.5-0.5-1-0.5-1.5,0L4.4,21c-1.3,1.3-3,1.3-3.1,1.3H0.6c-0.3,0-0.6-0.3-0.6-0.6c0-0.3,0.3-0.6,0.6-0.6h0.8c0,0,1.3,0,2.3-1l3.8-3.8c1-1,2.1-1,3.1,0l0.7,0.7l5-5c0.2-0.2,0.6-0.2,0.8,0l3.4,3.4l0.7-0.7c0.5-0.5,1-0.7,1.6-0.7l0,0c0.5,0,1.1,0.2,1.5,0.7c0.5,0.5,1.7,1.7,2.3,2.3l0.7-0.7c0.5-0.5,1-0.7,1.5-0.7l0,0c0.5,0,1.1,0.2,1.6,0.7l3.8,3.8c1,1,2.3,1,2.3,1h0.8c0.3,0,0.6,0.3,0.6,0.6C37.9,22.1,37.7,22.3,37.4,22.3z"/></g><g><path fill="#fff" d="M37.4,18.9h-0.8c-0.1,0-1.8,0-3.1-1.3l-3.8-3.8c-0.5-0.5-1-0.5-1.5,0L27,14.9c-0.2,0.2-0.6,0.2-0.8,0l-2.7-2.7c-0.5-0.5-1-0.5-1.5,0l-1.2,1.2c-0.2,0.2-0.6,0.2-0.8,0l-3.4-3.4l-5,5c-0.2,0.2-0.6,0.2-0.8,0l-1.2-1.1 c-0.5-0.5-1-0.5-1.5,0l-3.8,3.8c-1.3,1.3-3,1.3-3.1,1.3H0.6c-0.3,0-0.6-0.3-0.6-0.6c0-0.3,0.3-0.6,0.6-0.6h0.8c0,0,1.3,0,2.3-1 l3.8-3.8c1-1,2.1-1,3.1,0l0.7,0.7l5-5c0.2-0.2,0.6-0.2,0.8,0l3.4,3.4l0.7-0.7c1-1,2.1-1,3.1,0l2.3,2.3l0.7-0.7c1-1,2.1-1,3.1,0 l3.8,3.8c1,1,2.3,1,2.3,1h0.8c0.3,0,0.6,0.3,0.6,0.6C37.9,18.6,37.7,18.9,37.4,18.9z"/> </g> <g> <path fill="#fff" d="M37.4,15.2l-0.8,0c-0.1,0-1.8,0-3.1-1.3c-1.3-1.3-3.4-3.3-3.9-3.8c-0.5-0.5-1-0.5-1.5,0L27,11.3 c-0.1,0.1-0.2,0.2-0.4,0.2l0,0c-0.2,0-0.3-0.1-0.4-0.2l-2.7-2.7c-0.5-0.5-1-0.5-1.5,0l-1.1,1.2c-0.2,0.2-0.6,0.2-0.8,0l-3.5-3.4 l-4.9,5c-0.2,0.2-0.6,0.2-0.8,0l-1.2-1.1c-0.5-0.5-1-0.5-1.5,0c-0.4,0.4-1.7,1.7-2.8,2.9l-0.9,1c-1.3,1.3-3,1.3-3.1,1.3l-0.8,0 C0.3,15.6,0,15.3,0,15c0-0.3,0.2-0.6,0.6-0.6l0.8,0c0,0,1.3,0,2.3-1l0.9-1C5.7,11.3,7,9.9,7.4,9.5c1-1,2.1-1,3.1,0l0.8,0.7l4.9-5 C16.4,5,16.7,5,17,5.2l3.5,3.4l0.7-0.8c1-1,2.1-1,3.1,0l2.3,2.3l0.7-0.8c1-1,2.1-1,3.1,0c0.5,0.5,2.5,2.5,3.9,3.8c1,1,2.3,1,2.3,1 l0.8,0c0.3,0,0.6,0.2,0.6,0.6C37.9,14.9,37.7,15.2,37.4,15.2z"/> </g> <g> <path fill="#fff" d="M37.4,11.9h-0.8c-0.1,0-1.8,0-3.1-1.3l-3.8-3.8c-0.3-0.3-0.5-0.4-0.8-0.4l0,0c-0.2,0-0.5,0.1-0.7,0.4 C27.4,7.5,27,7.9,27,7.9C26.9,8,26.8,8,26.6,8l0,0c-0.1,0-0.3-0.1-0.4-0.2c0,0-1.9-1.9-2.7-2.7c-0.3-0.3-0.5-0.4-0.7-0.4l0,0 c-0.2,0-0.5,0.1-0.7,0.4l-1.1,1.1c-0.1,0.1-0.3,0.2-0.4,0.2l0,0c-0.2,0-0.3-0.1-0.4-0.2l-3.4-3.4l-5,5c-0.2,0.2-0.6,0.2-0.8,0 L9.7,6.7c-0.5-0.5-1-0.5-1.5,0l-3.8,3.8c-1.3,1.3-3,1.3-3.1,1.3H0.6c-0.3,0-0.6-0.3-0.6-0.6c0-0.3,0.3-0.6,0.6-0.6h0.8 c0,0,1.3,0,2.3-1l3.8-3.8c0.5-0.5,1-0.7,1.5-0.7l0,0c0.5,0,1.1,0.2,1.6,0.7l0.7,0.7l5-5c0.2-0.2,0.6-0.2,0.8,0l3.4,3.4l0.7-0.7 c0.5-0.5,1-0.7,1.6-0.7l0,0c0.5,0,1.1,0.2,1.5,0.7c0.5,0.5,1.7,1.7,2.3,2.3c0.2-0.2,0.4-0.4,0.8-0.7c0.5-0.5,1-0.7,1.5-0.7l0,0 c0.5,0,1.1,0.2,1.6,0.7l3.8,3.8c1,1,2.3,1,2.3,1h0.8c0.3,0,0.6,0.3,0.6,0.6C37.9,11.6,37.7,11.9,37.4,11.9z"/> </g> <g> <path fill="#fff" d="M36.1,29c0.4,0,0.7-0.1,0.7-0.2c0.1-0.1,0.2-0.3,0.2-0.7c0-0.4-0.1-0.6-0.2-0.7c-0.1-0.1-0.3-0.2-0.7-0.2 c-0.4,0-0.6,0.1-0.7,0.2c-0.1,0.1-0.2,0.3-0.2,0.7c0,0.4,0.1,0.6,0.2,0.7C35.4,28.9,35.6,29,36.1,29z"/> <path fill="#fff" d="M25,30.1h-3.1c-0.2,0-0.6,0.2-0.6,0.7c0,0.7,0.6,0.6,0.8,0.6H25c0.2,0,0.4,0.2,0.5,0.4c0.1,0.3,0.1,0.5,0.1,0.8h-2.4 c-2.1,0-2.3,1.2-2.3,1.8v0.2c0,0.6,0.2,2,2.3,2h3.9v-4C27.1,31,26.3,30.1,25,30.1z M22.4,34.5c0-0.4,0.2-0.6,0.8-0.6h2.4v1.6h-2.4 c-0.6,0-0.8-0.4-0.8-0.8V34.5z"/> <path fill="#fff" d="M5,30.1H1.9c-0.2,0-0.6,0.2-0.6,0.7c0,0.7,0.6,0.6,0.8,0.6H5c0.2,0,0.4,0.2,0.5,0.4c0.1,0.3,0.1,0.5,0.1,0.8H3.2 c-2.1,0-2.3,1.2-2.3,1.8v0.2c0,0.6,0.2,2,2.3,2h3.9v-4C7.1,31,6.3,30.1,5,30.1z M2.4,34.5c0-0.4,0.2-0.6,0.8-0.6h2.4v1.6H3.2 c-0.6,0-0.8-0.4-0.8-0.8V34.5z"/> <path fill="#fff" d="M32.8,30.1l-1.4,0c-1.6,0-2.1,1.1-2.1,2.1v4.4h1.5v-4.4c0-0.4,0.1-0.7,0.6-0.7l1.4,0c0.2,0,0.7-0.1,0.7-0.6 C33.6,30.2,33,30.1,32.8,30.1z"/> <path fill="#fff" d="M16.3,30.1h-3.1v9.8c0,0.2,0.2,0.6,0.7,0.6c0.6,0,0.7-0.4,0.7-0.6v-3.3h1.6c0.8,0,3.1,0,3.1-2.7v-1.1 C19.4,30.1,17.1,30.1,16.3,30.1z M14.7,31.5h1.6c1,0,1.6,0.2,1.6,1.4v1.1c0,1.1-0.6,1.4-1.6,1.4h-1.6V31.5z"/> <path fill="#fff" d="M10,25.9c-0.6,0-0.7,0.4-0.7,0.6v10.1h1.5V26.5C10.8,26.3,10.6,25.9,10,25.9z"/> <path fill="#fff" d="M36.1,30.1c-0.6,0-0.7,0.4-0.7,0.6v5.9h1.5v-5.9C36.8,30.5,36.7,30.1,36.1,30.1z"/> </g> </g> </svg> 