<svg xmlns="http://www.w3.org/2000/svg" width="232" height="36" viewBox="0 0 232 36"><path fill="#1E8F1E" d="M5.458 34.018c0 .822-.683 1.482-1.526 1.482h-1.401c-.846 0-1.531-.662-1.531-1.482v-2.973c0-.816.685-1.48 1.531-1.48h1.402c.843 0 1.528.664 1.528 1.48l-.003 2.973zM33.244 17.939c0 .818-.685 1.482-1.53 1.482h-1.402c-.841 0-1.532-.666-1.532-1.482v-2.97c0-.821.689-1.484 1.532-1.484h1.402c.843 0 1.53.662 1.53 1.484v2.97zM53.412 14.785c0 .82-.684 1.485-1.532 1.485h-1.4c-.845 0-1.531-.665-1.531-1.485v-4.453c0-.821.684-1.484 1.531-1.484h1.4c.847 0 1.532.663 1.532 1.484v4.453zM19.227 24.617c0 .818-.686 1.482-1.533 1.482h-1.4c-.845 0-1.532-.666-1.532-1.482v-6.678c0-.821.683-1.486 1.532-1.486h1.4c.844 0 1.533.665 1.533 1.486v6.678zM39.87 14.876c0 .821-.683 1.484-1.531 1.484h-1.4c-.843 0-1.531-.664-1.531-1.484v-6.68c0-.819.684-1.484 1.531-1.484h1.4c.847 0 1.531.665 1.531 1.484v6.68zM46.467 17.475c0 .821-.686 1.484-1.533 1.484h-1.401c-.844 0-1.531-.666-1.531-1.484v-6.678c0-.818.682-1.483 1.531-1.483h1.401c.844 0 1.533.666 1.533 1.483v6.678zM60.42 8.664c0 .821-.683 1.485-1.529 1.485h-1.4c-.843 0-1.531-.664-1.531-1.485v-6.679c0-.821.688-1.485 1.531-1.485h1.4c.845 0 1.529.664 1.529 1.485v6.679zM26.104 21.928c0 .818-.683 1.484-1.528 1.484h-1.4c-.845 0-1.534-.668-1.534-1.484v-10.39c0-.819.687-1.482 1.534-1.482h1.4c.842 0 1.528.665 1.528 1.482v10.39zM12.407 34.018c0 .822-.685 1.482-1.528 1.482h-1.404c-.843 0-1.529-.662-1.529-1.482v-11.133c0-.82.685-1.481 1.529-1.481h1.404c.843 0 1.53.663 1.53 1.481l-.002 11.133z"/><path d="M56.648 35.299c-2.323 0-3.188-1.727-3.188-2.814v-5.697h1.119v5.697c0 .48.371 1.73 2.068 1.73h2.724c.275 0 2.69-.063 2.69-2.146v-.174h.047v-5.426l1.121-.002v8.461h-1.118v-.516c-.8.646-1.906.887-2.738.887h-2.725zM70.313 35.303c-1.755 0-2.804-1.195-2.804-2.352v-5.066h-1.866v-1.09h1.866v-1.484h1.119v1.484h5.736v1.09h-5.736v5.066c0 .488.458 1.264 1.687 1.264l4.095.002v1.086h-4.097z"/><path fill="#1E8F1E" d="M143.437 35.303c-1.754 0-2.804-1.195-2.804-2.352v-5.066h-1.869v-1.09h1.869v-1.484h1.115v1.484h5.736v1.09h-5.736v5.066c0 .488.461 1.264 1.688 1.264l4.095.002v1.086h-4.094zM171.537 35.303c-1.754 0-2.801-1.195-2.801-2.352v-5.066h-1.867v-1.09h1.867v-1.484h1.115v1.484h5.732v1.09h-5.732v5.066c0 .488.459 1.264 1.688 1.264l4.096.002v1.086h-4.098z"/><path d="M83.506 35.303c-.834 0-2.83-.031-2.83-.031l-.708-.01c-1.51 0-3.139-1.129-3.139-2.955v-2.779c0-.936.92-2.686 3.139-2.686h4.493c2.219 0 3.141 1.75 3.141 2.686v2.779c0 1.824-1.63 2.955-3.141 2.955-.201 0-.598.031-.662.037l-.293.004zm-2.805-1.117s1.978.031 2.806.031l.23-.002c.095-.008.509-.037.723-.037.971 0 2.021-.713 2.021-1.867v-2.785c0-.426-.479-1.592-2.021-1.592h-4.492c-1.543 0-2.022 1.166-2.022 1.592v2.783c0 1.154 1.05 1.865 2.022 1.865l.733.012zM205.949 35.303c-.832 0-2.832-.031-2.832-.031l-.703-.01c-1.512 0-3.141-1.129-3.141-2.955v-2.779c0-.936.922-2.686 3.141-2.686h4.492c2.223 0 3.139 1.75 3.139 2.686v2.779c0 1.824-1.627 2.955-3.139 2.955-.213 0-.672.037-.672.037l-.285.004zm-2.804-1.117s1.979.031 2.805.031l.236-.002c-.004 0 .48-.037.721-.037.973 0 2.021-.713 2.021-1.867v-2.785c0-.426-.479-1.592-2.021-1.592h-4.492c-1.543 0-2.023 1.166-2.023 1.592v2.783c0 1.154 1.051 1.865 2.023 1.865l.73.012z"/><path fill="#1E8F1E" d="M97.268 35.303l.01-.172-.07.172h-.071c-1.026 0-2.933-.031-2.933-.031l-.708-.01c-1.51 0-3.14-1.129-3.14-2.955v-2.779c0-.936.921-2.686 3.14-2.686h6.808l.156.021.137.033-.014 1.072-.196-.02-6.889-.014c-1.542 0-2.021 1.164-2.021 1.592v2.779c0 1.156 1.049 1.869 2.021 1.869l.685.006c.043.002 2.211.033 2.953.033l.181.174-.003-.176 3.137-.037.131.152.057.908-.355.029c-.229 0-3.009.035-3.009.035h-.007v.005z"/><path d="M193.322 35.303l.01-.172-.063.172h-.068c-1.029 0-2.939-.031-2.939-.031l-.703-.01c-1.512 0-3.145-1.129-3.145-2.955v-2.779c0-.936.922-2.686 3.145-2.686h6.807l.156.023.135.033-.014 1.07-.197-.021-6.891-.014c-1.541 0-2.021 1.164-2.021 1.592v2.779c0 1.156 1.053 1.869 2.021 1.869l.729.008s2.166.031 2.91.031c.129 0 3.314-.039 3.314-.039l.129.152.055.908-.354.029c-.229 0-3.01.035-3.01.035h-.006v.006z"/><path fill="#1E8F1E" d="M103.544 34.928v-11.34h1.118v3.609c.544-.475 1.23-.729 1.97-.729h4.398c.961 0 2.758.893 2.758 3.047v5.102l-.026.145-.167.16-.957-.012.015-.186.012-5.211c0-1.494-1.2-1.959-1.636-1.959h-4.398c-1.19 0-1.927 1.016-1.927 1.959l-.007.67c0 .039-.038 2.438-.03 2.988l.001.172h-.007v1.582h-1.117v.003z"/><path d="M229.842 34.92s.037-1.496.037-1.705v-3.664c0-1.496-1.053-1.961-1.438-1.961h-3.996c-.988 0-1.604.91-1.68 1.768l.016 5.266-.031.141-.162.16-.961-.012.021-.191.014-4.313-.041-.174.006-.682.195-.209-.178.01c-.076-1.367-1.066-1.791-1.42-1.791h-3.996c-1.053 0-1.703 1.016-1.703 1.957l-.004.703c0 .002-.041 2.402-.031 2.953v1.76h-1.119v-8.604h1.119v.785c.393-.342.961-.646 1.734-.646h4c.621 0 1.469.41 2.006 1.199.531-.75 1.324-1.172 2.215-1.172h3.994c.895 0 2.557.896 2.561 3.055v3.662c0 .217-.037 1.734-.037 1.734l-1.121-.029zM42.103 34.992c-2.002 0-2.536-1.313-2.536-2.09l-.008-.301c-.013-.18-.022-.299.008-.898.06-1.289 1.063-1.941 2.98-1.941h3.439c1.334 0 2.169.295 2.932.754v-1.324c0-1.559-1.51-1.68-1.975-1.68h-5.625v-1.09h5.626c1.149 0 3.094.584 3.094 2.773v5.734h-1.119v-.756c-.698.484-1.562.818-2.165.818h-4.651v.001zm.443-4.14c-1.597 0-1.839.434-1.862.902-.025.537-.021.621-.016.74l.014.408c0 .234.102 1.002 1.418 1.002h4.651c.645 0 1.988-.775 2.146-1.238l.022-.064v-.852c-.819-.508-1.467-.898-2.933-.898h-3.44z"/><path fill="#1E8F1E" d="M119.084 34.992c-2.002 0-2.535-1.313-2.535-2.09l-.01-.287c-.013-.195-.021-.313.01-.912.06-1.289 1.062-1.941 2.979-1.941h3.441c1.335 0 2.168.295 2.925.754v-1.324c0-1.559-1.507-1.68-1.97-1.68h-5.627v-1.09h5.627c1.148 0 3.092.584 3.094 2.773v5.734h-1.123v-.754c-.695.482-1.559.816-2.162.816h-4.649v.001zm.443-4.142c-1.599 0-1.84.436-1.861.904-.029.518-.024.613-.017.729l.017.422c0 .234.104 1.002 1.414 1.002h4.651c.692 0 2-.813 2.146-1.238l.018-.051v-.865c-.816-.51-1.463-.902-2.926-.902h-3.442v-.001zM129.863 34.934v-8.385h1.122v.6c.435-.414.896-.635 1.384-.66.412-.021 1.058-.031 1.733-.031 1.034 0 2.146.018 2.612.027l.398.002-.023 1.088h-.172c-.357-.006-1.642-.025-2.813-.025-.659 0-1.285.006-1.677.025-.639.033-1.233 1.008-1.457 1.52l.015 5.84h-1.122v-.001zM150.313 26.543h1.123v8.387h-1.123zM150.313 22.772h1.123v2.571h-1.123zM155.354 35.303v-1.086h6.934c1.984 0 1.984-.275 1.984-1.436 0-.338-.068-.578-.207-.715-.232-.227-.768-.227-1.199-.227h-5.103c-2.341 0-2.662-1.273-2.662-2.648 0-1.465 1.161-2.338 3.104-2.338h4.895v1.09h-4.895c-.904 0-1.985.219-1.985 1.248 0 1.207.204 1.561 1.543 1.561h5.077c.779 0 1.5.043 2.015.543.356.348.537.846.537 1.482.003.967-.16 1.535-.548 1.916-.444.434-1.184.607-2.559.607h-6.932v.003z"/><path d="M181.049 34.93c-.537 0-.971-.424-.971-.941 0-.521.434-.945.971-.945.541 0 .975.424.975.945-.001.517-.438.941-.975.941z"/></svg>