<svg version="1" xmlns="http://www.w3.org/2000/svg" width="65.417" height="22.875" viewBox="0 0 65.417 22.875"><path fill="#862165" d="M51.69 3.037l5.406-.96v20.577H51.69V3.037zm7.897 0v19.617H65V2.078l-5.413.96zM43.985 22.654h5.412V7.604h-5.412v15.05zM8.227 9.732c-.685-.044-2.268-.145-2.268-1.558 0-1.704 2.278-1.704 3.134-1.704 1.503 0 3.45.44 4.84.852 0 0 .777.27 1.437.548l.063.017V3.22l-.084-.025c-1.642-.57-3.55-1.117-7.087-1.117C2.16 2.078 0 5.598 0 8.616c0 1.738.752 5.832 7.737 6.303.592.035 2.164.125 2.164 1.584 0 1.206-1.285 1.916-3.45 1.916-2.37 0-4.67-.6-6.068-1.167v4.808c2.092.544 4.45.816 7.214.816 5.963 0 8.635-3.332 8.635-6.633 0-3.745-2.99-6.178-8.003-6.51zm32.708-2.348c-5 .16-7.54 2.382-7.54 6.803v8.467h5.457V15.75c0-2.647.35-3.782 3.52-3.89V7.462c-.535-.113-1.437-.078-1.437-.078zm-14.68.203c-.12.3-.986 2.726-3.08 5.24V2.076L17.59 3.173v19.482h5.584v-6.022c1.617 2.403 2.415 6.022 2.415 6.022h6.687c-.66-2.726-3.556-7.75-3.556-7.75 2.6-3.264 3.74-6.74 3.92-7.316h-6.384zM46.69 6.16c1.474 0 2.667-1.182 2.667-2.64 0-1.46-1.193-2.645-2.668-2.645-1.472 0-2.666 1.185-2.666 2.644 0 1.458 1.194 2.64 2.665 2.64z"/></svg>