<svg xmlns="http://www.w3.org/2000/svg" width="148.125" height="23.5" viewBox="0 1.625 148.125 23.5" enable-background="new 0 1.625 148.125 23.5"><path fill="#272426" d="M13.3 16.843h-7.771l-1.449 7.858h-4.08l3.524-19.227h12.839l-.6 3.208h-8.743l-.92 4.965h7.798l-.598 3.196z"/><path fill="#AD0000" d="M24.455 12.077l7.205-10.112h4.902l-9.879 13.227 4.205 9.507h-4.512l-2.661-6.707-4.889 6.707h-4.958l7.618-9.876-4.08-9.35h4.457l2.592 6.604z"/><path fill="#272426" d="M49.728 19.114l4.889-13.641h4.164l-7.536 19.226h-4.106l-1.073-12.808-5.307 12.808h-4.107l-1.199-19.225h3.982l.403 13.575 5.458-13.575h3.468l.964 13.64zM61.681 24.699h-4.081l3.509-19.226h4.08l-3.508 19.226zM73.236 17.661h-3.314l-1.296 7.038h-4.08l3.522-19.226 6.713.013c2.247 0 3.977.501 5.188 1.505 1.212 1.004 1.748 2.398 1.609 4.186-.195 2.642-1.682 4.476-4.457 5.506l2.855 7.804v.211h-4.346l-2.394-7.037zm-2.731-3.208l3.036.025c1.078-.018 1.964-.292 2.667-.825.701-.532 1.12-1.256 1.261-2.172.131-.854-.015-1.522-.433-2.008-.417-.483-1.081-.743-1.99-.779l-3.481-.013-1.06 5.772zM94.732 16.341h-7.77l-.947 5.176h9.137l-.586 3.182h-13.215l3.523-19.226h13.188l-.6 3.209h-9.094l-.848 4.582h7.797l-.585 3.077z"/><path fill="#AD0000" d="M102.381 17.925l-1.254 6.774h-4.082l3.524-19.226 7.102.013c2.191 0 3.914.577 5.168 1.729s1.801 2.658 1.643 4.517c-.147 1.884-.977 3.389-2.485 4.516-1.512 1.127-3.433 1.69-5.773 1.69l-3.843-.013zm.569-3.207l3.397.026c1.096 0 2.006-.27 2.729-.807.725-.536 1.157-1.263 1.295-2.178.14-.916-.017-1.647-.465-2.191-.451-.546-1.117-.836-1.999-.872l-3.844-.013-1.113 6.035zM122.723 17.661h-3.315l-1.294 7.038h-4.081l3.522-19.226 6.712.013c2.248 0 3.978.501 5.189 1.505s1.748 2.398 1.609 4.186c-.196 2.642-1.682 4.476-4.458 5.506l2.855 7.804v.211h-4.346l-2.393-7.037zm-2.731-3.208l3.036.025c1.078-.018 1.966-.292 2.668-.825.7-.532 1.12-1.256 1.26-2.172.131-.854-.015-1.522-.433-2.008-.418-.483-1.081-.743-1.991-.779l-3.48-.013-1.06 5.772zM137.991 24.964c-1.348-.024-2.533-.328-3.559-.903-1.026-.578-1.838-1.41-2.437-2.497-.6-1.088-.944-2.335-1.038-3.745-.103-1.442.06-2.983.487-4.62.427-1.638 1.114-3.077 2.061-4.318.947-1.243 2.059-2.169 3.336-2.787 1.275-.615 2.657-.911 4.142-.884 1.367.026 2.56.333 3.581.918 1.022.585 1.826 1.426 2.41 2.522.585 1.096.919 2.34 1.001 3.731.094 1.549-.082 3.142-.53 4.779-.442 1.638-1.136 3.055-2.073 4.253-.938 1.196-2.035 2.094-3.294 2.693-1.259.599-2.621.884-4.087.858zm5.78-10.404l.111-1.256c.093-1.566-.128-2.755-.661-3.565-.534-.809-1.345-1.232-2.431-1.267-1.698-.053-3.048.66-4.045 2.139-.999 1.479-1.563 3.547-1.693 6.208-.093 1.559.127 2.756.655 3.598.529.84 1.351 1.278 2.466 1.313 1.457.063 2.665-.476 3.621-1.616.955-1.14 1.583-2.754 1.878-4.839l.099-.715z"/></svg>