<svg xmlns="http://www.w3.org/2000/svg" width="84" height="52.998" viewBox="0 0 84 52.998"><path fill="#12CA5F" d="M82.795 18.343c-.958-5.778-5.191-11.866-15.201-15.578-10.033-3.721-22.228-3.199-30.894-1.289-7.568 1.668-14.97 4.768-19.016 7.377-3.81 2.456-6.627 4.427-9.84 7.874-3.062 3.286-5.051 7.191-5.716 8.977-.918 2.469-1.437 6.088-.927 8.573.324 1.581.834 5.374 4.882 9.536 4.047 4.162 10.674 6.958 16.452 8.045 4.46.839 12.312 2.05 22.538.062 10.227-1.988 17.302-5.653 19.372-6.771 2.07-1.118 9.021-5.436 12.915-10.312 3.892-4.88 6.393-10.717 5.435-16.494zm-5.314-7.807c.898 0 1.627.732 1.627 1.636 0 .904-.729 1.636-1.627 1.636-.899 0-1.627-.732-1.627-1.636 0-.904.728-1.636 1.627-1.636zm-44.098-7.994c.898 0 1.627.732 1.627 1.636 0 .904-.729 1.636-1.627 1.636s-1.627-.732-1.627-1.636c0-.903.729-1.636 1.627-1.636zm-26.632 39.677c-.898 0-1.627-.732-1.627-1.636 0-.903.729-1.636 1.627-1.636.899 0 1.627.733 1.627 1.636.001.904-.728 1.636-1.627 1.636zm44.037 7.993c-.898 0-1.627-.733-1.627-1.636s.729-1.636 1.627-1.636 1.627.732 1.627 1.636-.729 1.636-1.627 1.636zm29.798-26.822c-.108 5.048-1.745 7.486-3.908 9.971-2.163 2.485-4.711 4.783-8.542 6.896-3.832 2.112-9.518 4.677-17.95 6.29-5.686 1.087-12.173 1.18-14.583 1.211s-9.84-.481-15.664-2.485c-5.824-2.003-9.408-3.821-12.636-7.159-3.23-3.341-3.615-6.431-3.615-6.431-.231-1.18-.556-3.013.016-5.405.572-2.392 1.653-4.178 2.719-5.684 1.066-1.507 4.171-4.38 5.237-5.172 1.066-.792 5.021-3.308 6.72-4.084 1.699-.777 2.657-1.289 4.943-2.128s4.881-1.708 9.346-2.656 10.536-1.367 12.188-1.398c1.653-.031 6.844-.062 11.246.652 4.403.714 9.207 1.926 12.853 3.681 3.646 1.755 5.685 3.354 6.488 4.1.801.746 5.25 4.754 5.142 9.801z"/><path d="M16.175 18.542h-2.432v-.882h5.92v.883h-2.444v7.157h-1.044v-7.158zM21.687 17.767c.522-.107 1.269-.167 1.981-.167 1.103 0 1.815.203 2.313.656.404.357.629.906.629 1.526 0 1.062-.665 1.766-1.507 2.052v.036c.617.215.985.787 1.175 1.622.261 1.122.451 1.897.617 2.207h-1.068c-.13-.227-.308-.918-.534-1.92-.237-1.109-.665-1.527-1.602-1.563h-.973v3.483h-1.032v-7.932zm1.031 3.662h1.056c1.104 0 1.803-.608 1.803-1.526 0-1.038-.747-1.491-1.839-1.503-.498 0-.854.047-1.021.095v2.934zM31.938 23.17l-.831 2.529h-1.067l2.717-8.04h1.245l2.729 8.04h-1.103l-.854-2.529h-2.836zm2.622-.811l-.783-2.314c-.178-.525-.296-1.002-.415-1.467h-.024c-.119.477-.249.966-.403 1.455l-.783 2.326h2.408zM39.228 17.767c.629-.095 1.376-.167 2.195-.167 1.483 0 2.539.346 3.239 1.002.712.656 1.127 1.586 1.127 2.887 0 1.312-.403 2.385-1.15 3.125-.748.751-1.981 1.157-3.536 1.157-.735 0-1.353-.036-1.875-.095v-7.909zm1.032 7.109c.261.048.641.06 1.044.06 2.207 0 3.405-1.24 3.405-3.411.012-1.896-1.056-3.101-3.239-3.101-.534 0-.937.047-1.21.107v6.345zM49.4 17.66v8.04h-1.032v-8.04h1.032zM52.077 25.699v-8.04h1.127l2.563 4.067c.594.942 1.056 1.789 1.436 2.612l.024-.012c-.095-1.073-.119-2.051-.119-3.304v-3.362h.973v8.04h-1.044l-2.539-4.08c-.558-.895-1.092-1.813-1.495-2.684l-.036.012c.06 1.014.083 1.98.083 3.316v3.436h-.973zM67.722 25.341c-.463.167-1.376.441-2.456.441-1.209 0-2.206-.31-2.99-1.062-.688-.668-1.115-1.742-1.115-2.994.012-2.397 1.649-4.151 4.33-4.151.926 0 1.649.203 1.993.37l-.249.847c-.427-.191-.961-.346-1.768-.346-1.946 0-3.215 1.217-3.215 3.232 0 2.04 1.222 3.245 3.084 3.245.676 0 1.139-.096 1.376-.215v-2.397h-1.625v-.835h2.634v3.865zM20.418 35.936c-.38.191-1.139.382-2.112.382-2.254 0-3.951-1.431-3.951-4.067 0-2.516 1.696-4.223 4.176-4.223.997 0 1.625.215 1.898.358l-.25.847c-.391-.191-.949-.334-1.613-.334-1.875 0-3.12 1.205-3.12 3.316 0 1.968 1.127 3.232 3.073 3.232.629 0 1.27-.131 1.685-.334l.214.823zM27.202 32.429h-3.109v2.898h3.465v.871h-4.497v-8.04h4.318v.871h-3.287v2.541h3.109v.859zM30.281 36.198v-8.04h1.127l2.563 4.067c.593.942 1.056 1.79 1.436 2.612l.024-.012c-.095-1.073-.119-2.051-.119-3.304v-3.364h.973v8.04h-1.045l-2.539-4.08c-.558-.895-1.091-1.813-1.495-2.684l-.036.012c.06 1.015.083 1.98.083 3.316v3.436h-.972zM41.185 29.042h-2.432v-.883h5.92v.883h-2.444v7.157h-1.043v-7.157zM46.789 28.266c.522-.107 1.27-.167 1.981-.167 1.103 0 1.815.203 2.313.656.403.357.629.906.629 1.526 0 1.062-.665 1.766-1.507 2.052v.036c.618.215.985.787 1.175 1.623.261 1.121.451 1.896.617 2.207h-1.068c-.13-.227-.309-.918-.534-1.92-.237-1.109-.664-1.527-1.602-1.563h-.973v3.483h-1.032v-7.933zm1.032 3.662h1.056c1.104 0 1.804-.608 1.804-1.526 0-1.038-.748-1.491-1.839-1.503-.499 0-.854.047-1.021.095v2.934zM56.855 33.669l-.831 2.529h-1.068l2.717-8.04h1.246l2.729 8.04h-1.104l-.854-2.529h-2.835zm2.622-.811l-.783-2.314c-.178-.525-.297-1.002-.416-1.467h-.023c-.119.477-.25.966-.403 1.455l-.783 2.326h2.408zM63.929 28.159h1.032v7.168h3.417v.871h-4.449v-8.039z"/></svg>