<svg xmlns="http://www.w3.org/2000/svg" width="118" height="26.75" viewBox="0 0 118 26.75"><path fill="#00446D" d="M10.328 11.875l-.004 2.902h-4.928v10.393h-3.938v-22.792h11.826v2.845h-7.888v6.652h4.932zM27.344 25.168h-3.611l-2.096-8.665h-.077l-2.524 8.665h-3.456l3.533-11.521-3.535-11.269h3.646l2.335 8.411h.077l2.329-8.411h3.456l-3.338 11.269 3.261 11.521z"/><path fill="#FF9A00" d="M37.56 8.03l.014-1.58c.008-.917-.522-1.301-1.671-1.311l-.617-.004c-1.123-.01-1.661.437-1.669 1.354l-.032 3.657c-.004.427.07.791.289.941.216.153.571.347 1.063.585l3.722 1.6c.818.37 1.396.656 1.738.863.339.205.604.453.793.742.189.29.28.839.273 1.651l-.043 4.896c-.023 2.583-1.622 3.859-4.796 3.833l-2.423-.019c-3.148-.027-4.709-1.447-4.685-4.263l.005-1.521 3.96.033.009 1.572c-.008.897.555 1.31 1.732 1.319l.686.006c1.04.008 1.53-.353 1.539-1.25l.034-3.915c.004-.425-.067-.703-.286-.854-.217-.15-.572-.346-1.063-.585l-3.72-1.662c-.819-.349-1.412-.641-1.779-.88-.368-.238-.633-.544-.793-.918-.16-.374-.238-.86-.233-1.458l.042-4.704c.023-2.625 1.608-3.925 4.756-3.899l2.464.021c3.147.025 4.709 1.351 4.687 3.976l-.016 1.808-3.98-.034zM51.734 5.161v20.091h-4.005v-20.091h-3.996v-2.866h11.996v2.866h-3.995zM58.494 2.295h7.56c2.948 0 4.424 1.313 4.424 3.934v5.661c0 2.002-.766 3.27-2.294 3.803l2.696 9.56h-3.66l-2.533-9.272h-2.191v9.271l-4.001.001v-22.958zm4.001 11.064h2.392c1.153 0 1.618-.534 1.618-1.642l-.001-5.02c0-1.106-.446-1.537-1.598-1.537h-2.41v8.199zM73.371 25.252v-22.956h11.998v2.865h-8.002v6.7h5.001v2.875h-4.998l-.003 7.662 8.002-.002v2.857h-11.998zM110.463 5.162v20.091h-4.006v-20.091h-3.997v-2.866h11.997v2.865h-3.994zM88.08 25.252v-22.956h11.997v2.865h-8.002v6.7h5.001v2.875h-4.998l-.003 7.662 8.002-.002v2.857h-11.997z"/></svg>