<svg version="1" xmlns="http://www.w3.org/2000/svg" width="18" height="18" viewBox="0 0 18 18"><path fill-rule="evenodd" clip-rule="evenodd" fill="#737B79" d="M9 0C4.03 0 0 4.03 0 9s4.03 9 9 9 9-4.03 9-9-4.03-9-9-9zM6.053 1.15c-.442.8-.967 2.046-1.312 3.806H1.65C2.61 3.22 4.17 1.856 6.053 1.15zM1.337 5.58h3.3c-.146.91-.242 1.942-.258 3.11H.617c.04-1.104.29-2.155.72-3.11zM.613 9.31h3.77c.015 1.176.116 2.2.262 3.112H1.36c-.43-.958-.706-2-.747-3.11zm1.044 3.734h3.09c.346 1.777.878 3.02 1.323 3.812-1.89-.704-3.45-2.07-4.413-3.812zm7.07 4.34c-.65-.02-1.282-.123-1.89-.284-.468-.768-1.076-2.088-1.462-4.056h3.353v4.34zm0-4.962h-3.46c-.146-.912-.247-1.937-.262-3.11h3.723v3.11zm0-3.734H5.002c.017-1.17.114-2.198.26-3.11h3.468v3.11zm0-3.732H5.363c.382-1.954.987-3.268 1.455-4.05.613-.165 1.25-.27 1.91-.29v4.34zm8.654 3.732H13.7c-.016-1.17-.112-2.2-.258-3.11h3.21c.43.957.688 2.005.73 3.11zM16.34 4.956h-3.002c-.34-1.74-.857-2.98-1.298-3.78 1.84.717 3.353 2.07 4.3 3.78zM9.35.614c.662.028 1.305.134 1.92.306.466.784 1.066 2.093 1.446 4.036H9.35V.614zm0 4.964h3.468c.146.912.243 1.94.26 3.11H9.35v-3.11zm0 3.733h3.723c-.015 1.176-.115 2.2-.26 3.112H9.35v-3.11zm0 8.064v-4.33h3.354c-.383 1.956-.987 3.27-1.455 4.04-.61.17-1.246.26-1.9.29zm2.67-.545c.443-.793.97-2.027 1.312-3.786h3c-.943 1.717-2.462 3.07-4.31 3.785zm4.61-4.408h-3.196c.146-.913.247-1.937.262-3.11h3.68c-.043 1.108-.316 2.15-.745 3.11z"/></svg>