<svg xmlns="http://www.w3.org/2000/svg" width="25" height="18" viewBox="0 0 25 18"><path fill-rule="evenodd" clip-rule="evenodd" fill="#787878" d="M19.115 0l5.342 9.099-2.799 1.617-.564-.944-.173.447c-.065.145-.124.298-.22.421-.244.313-.327.618-.278 1.049.085.732-.438 1.433-1.229 1.696l-.258.078c-.093.841-.558 1.351-1.377 1.548-.063.018-.145.098-.159.162-.2.88-.774 1.353-1.634 1.514-.178.034-.295.106-.395.274-.49.827-1.533 1.142-2.481.766l-.108-.047c-.423-.238-.812-.415-1.358-.253-.604.179-1.194-.049-1.618-.562-.104-.128-.178-.278-.277-.438-.451.108-.918.13-1.362-.104-.448-.234-.728-.6-.832-1.123-.523.112-1.022.062-1.47-.253-.463-.327-.638-.789-.621-1.293-.337-.123-.681-.191-.959-.363-.758-.47-.987-1.484-.545-2.291.076-.139.068-.228-.014-.36-.152-.246-.276-.513-.416-.78l-.511.855-2.799-1.616 5.342-9.099h.048l1.121.666 1.636.944-.43.752.146-.016c.953-.148 1.904-.304 2.857-.44.499-.07.978.014 1.418.278.051.031.14.049.188.025.798-.376 1.629-.271 2.456-.163.647.084 1.291.207 1.954.316l-.423-.752.436-.259 2.318-1.351h.048zm-4.634 16.538c-.427-.279-.838-.545-1.244-.817-.09-.062-.178-.14-.233-.231-.105-.172-.034-.432.136-.574.204-.172.412-.157.647.013.333.243.673.477 1.019.7.42.271.845.155 1.235-.062.146-.083.246-.26.346-.409.098-.146.05-.244-.119-.329-.374-.188-.744-.392-1.096-.619-.161-.103-.297-.266-.405-.426-.11-.164-.081-.354.051-.508.13-.148.291-.229.487-.127l.555.314c.336.191.657.415 1.01.565.479.204 1.058-.07 1.083-.64-.368-.215-.742-.407-1.089-.643-.212-.145-.402-.336-.56-.539-.126-.161-.094-.362.053-.524.135-.15.3-.213.489-.112.188.099.369.211.551.322.296.182.574.4.89.542.442.199.912-.003 1.12-.429.141-.281.085-.484-.148-.695-.938-.838-1.891-1.661-2.797-2.531-.781-.75-1.518-1.547-2.253-2.343-.252-.273-.494-.465-.876-.318-.21.081-.433.148-.618.271-.994.655-1.978 1.323-2.964 1.989-.349.235-.716.367-1.144.276-1.03-.219-1.693-1.541-.986-2.439.691-.878 1.465-1.679 2.33-2.389.39-.32.795-.622 1.221-.953h-.229c-.474.044-.954.06-1.421.145-.612.112-1.224.246-1.818.43-.514.158-.929.465-1.212.966-.724 1.284-1.492 2.544-2.228 3.821-.095.163-.147.372-.154.562-.014.402.098.78.296 1.136.1.18.191.234.405.162.98-.334 2.118.33 2.285 1.344.037.221.115.268.309.28.674.043 1.296.581 1.417 1.244.03.166.082.196.236.204 1.093.069 1.79.928 1.646 2.004-.009.072.039.19.097.225.79.473 1.581.94 2.381 1.394.44.25.918.154 1.299-.252zm5.217-6.125c.271-.403.435-.815.527-1.261.089-.428.051-.809-.189-1.202-.751-1.231-1.476-2.479-2.194-3.729-.168-.292-.392-.498-.686-.632-.213-.098-.436-.195-.665-.24-.729-.141-1.463-.26-2.194-.385-.661-.113-1.311-.083-1.881.302-.676.457-1.371.901-1.979 1.439-.691.609-1.297 1.315-1.938 1.98l-.12.149c-.132.208-.085.485.113.695.188.198.411.231.643.082l.751-.504c.852-.566 1.701-1.136 2.559-1.691.175-.113.386-.228.585-.237.633-.03 1.271-.044 1.901.001.402.029.804.159 1.195.273.258.075.355.297.307.57-.041.227-.195.345-.475.332-.184-.009-.366-.052-.576-.083 1.36 1.475 2.778 2.851 4.316 4.141zm-14.519 2.166c.516.001.981-.395.979-.833-.002-.41-.382-.766-.813-.763-.435.004-.85.431-.858.883-.008.405.29.712.692.713zm2.717.748c.001-.413-.396-.726-.793-.626-.383.099-.795.549-.853.937-.048.321.086.533.401.63.513.157 1.244-.395 1.245-.941zm.409 1.626c0 .355.253.592.632.592.435-.002.814-.343.813-.733-.001-.354-.326-.657-.705-.66-.401-.001-.74.367-.74.801z"/></svg>