<svg xmlns="http://www.w3.org/2000/svg" width="18" height="18" viewBox="0 0 18 18"><g><g><path fill="#737b79" d="M7.726,14.372h2.165v-2.165H7.726V14.372z M11.724,3.937c-0.734-0.65-1.723-0.975-2.966-0.975 c-1.181,0-2.135,0.321-2.862,0.963C5.168,4.567,4.778,5.348,4.721,6.267l1.987,0.247c0.139-0.642,0.393-1.12,0.763-1.433 C7.841,4.767,8.3,4.61,8.851,4.61c0.57,0,1.023,0.15,1.359,0.451c0.336,0.3,0.505,0.662,0.505,1.083 c0,0.303-0.095,0.58-0.285,0.832c-0.123,0.161-0.501,0.496-1.132,1.009C8.666,8.499,8.245,8.96,8.034,9.372 c-0.211,0.411-0.316,0.934-0.316,1.572c0,0.062,0.002,0.233,0.008,0.517H9.69c-0.01-0.597,0.04-1.01,0.15-1.24 c0.11-0.232,0.394-0.539,0.851-0.918c0.883-0.733,1.46-1.314,1.73-1.74c0.269-0.426,0.403-0.878,0.403-1.356 C12.825,5.343,12.458,4.586,11.724,3.937z"/></g></g><path fill="#737B79" d="M9,1c4.411,0,8,3.589,8,8s-3.589,8-8,8s-8-3.589-8-8S4.589,1,9,1 M9,0C4.029,0,0,4.029,0,9s4.029,9,9,9 s9-4.029,9-9S13.971,0,9,0L9,0z"/></svg>
