<svg xmlns="http://www.w3.org/2000/svg" viewBox="0 0 364.19 145.56"><defs><style>.cls-1{fill:#416f96;}</style></defs><title>Asset 8</title><g id="Layer_2" data-name="Layer 2"><g id="Layer_1-2" data-name="Layer 1"><polygon class="cls-1" points="227.53 84.29 204.59 71.04 169.02 92.2 153.12 83.02 153.29 114.64 207.87 114.64 191.97 105.45 227.53 84.29"/><polygon class="cls-1" points="165.33 70.4 200.92 50.16 216.84 59.36 216.67 27.74 162.09 27.74 177.99 36.92 142.4 57.16 165.33 70.4"/><path class="cls-1" d="M76,76.24c-20.68,0-37.5-17.1-37.5-38.12S55.31,0,76,0s37.5,17.1,37.5,38.12S96.67,76.24,76,76.24"/><path class="cls-1" d="M0,145.56c4.83-27.05,21.49-49.86,44.57-61L47,83.39l11.76,13L74.43,79.11l-7.81,40.49,8.94,9.84,8.94-9.84L76.7,79.11,92.35,96.35l11.76-13,2.45,1.18c23.08,11.14,39.75,33.94,44.57,61Z"/><path class="cls-1" d="M289,76.24c-20.68,0-37.5-17.1-37.5-38.12S268.37,0,289,0s37.5,17.1,37.5,38.12S309.73,76.24,289,76.24"/><path class="cls-1" d="M213.06,145.56c4.83-27.05,21.49-49.86,44.57-61l2.45-1.18,11.76,13,15.66-17.24-7.81,40.49,8.94,9.84,8.94-9.84-7.81-40.49,15.66,17.24,11.76-13,2.45,1.18c23.08,11.14,39.75,33.94,44.57,61Z"/></g></g></svg>