<svg xmlns="http://www.w3.org/2000/svg" viewBox="0 0 48.58 56.92"><defs><style>.cls-1{fill:#fff;}</style></defs><title>Asset 11</title><g id="Layer_2" data-name="Layer 2"><g id="Layer_1-2" data-name="Layer 1"><path class="cls-1" d="M38.26,16.51h-3V6a3,3,0,0,0-3-3h-16a3,3,0,0,0-3,3V16.51h-3V6a6,6,0,0,1,6-6h16a6,6,0,0,1,6,6Z"/><path class="cls-1" d="M48.56,16.62H0c0,.24,0,15.77,0,16a24.29,24.29,0,0,0,48.58,0C48.58,32.39,48.57,16.86,48.56,16.62Zm-42.47,7H42.49a.87.87,0,0,1,0,1.75H6.09a.88.88,0,0,1,0-1.75ZM27.25,42.38H22.17L23,37.61a3.25,3.25,0,1,1,3.39,0Zm-3,9.33A19.1,19.1,0,0,1,5.21,32.63a.87.87,0,1,1,1.75,0,17.33,17.33,0,1,0,34.66,0,.88.88,0,0,1,1.75,0A19.1,19.1,0,0,1,24.29,51.71Z"/></g></g></svg>