<svg xmlns="http://www.w3.org/2000/svg" viewBox="0 0 48.35 48.5"><defs><style>.cls-1{fill:#fff;}</style></defs><title>Asset 13</title><g id="Layer_2" data-name="Layer 2"><g id="Layer_1-2" data-name="Layer 1"><path class="cls-1" d="M26.16,12.24a4.05,4.05,0,0,0-.78-.08,4,4,0,1,0,.78.08Zm1.92,4.49a2.75,2.75,0,1,1-2.17-3.22,2.75,2.75,0,0,1,2.17,3.22Z"/><path class="cls-1" d="M24.18,28.83a7.71,7.71,0,1,0,7.71,7.71A7.72,7.72,0,0,0,24.18,28.83Zm3.68,1.66.92.66-1.6,2.21-.92-.66Zm-.16,6.06A3.51,3.51,0,1,1,24.18,33,3.52,3.52,0,0,1,27.69,36.55Zm-4-7.05h1.13v2.73H23.68Zm-3,1,1.6,2.21-.92.66-1.6-2.21Zm-2.8,3.26,2.59.84-.35,1.08-2.59-.84Zm0,5.36L17.48,38l2.59-.84.35,1.08Zm2.8,3.26-.92-.66,1.6-2.21.92.66Zm4.18,1H23.68V40.63h1.13Zm3-1-1.6-2.21.92-.66,1.6,2.21Zm2.8-3.26-2.59-.84.35-1.08L31,38ZM31,34.82l-2.59.84-.35-1.08,2.59-.84Z"/><path class="cls-1" d="M46.74,0H1.62A1.62,1.62,0,0,0,0,1.62V46.88A1.62,1.62,0,0,0,1.62,48.5H46.74a1.62,1.62,0,0,0,1.62-1.62V1.62A1.62,1.62,0,0,0,46.74,0ZM24.18,45.4A8.85,8.85,0,1,1,33,36.55,8.86,8.86,0,0,1,24.18,45.4ZM34.47,25.07l-6.12-5.18c-.1.08-.19.18-.3.25a4.73,4.73,0,0,1-2.65.81,4.78,4.78,0,0,1-.93-.09,4.73,4.73,0,0,1-3-2c-.08-.13-.16-.25-.23-.38L13.62,21l-.52-1.53,7.58-2.55a4.75,4.75,0,0,1,4.81-5.49l1.58-8,1.59.31-1.58,8a4.72,4.72,0,0,1,2.35,6.93l6.09,5.15Z"/></g></g></svg>