<svg xmlns="http://www.w3.org/2000/svg" width="3"><linearGradient id="a" x2="0" y2="100%"><stop stop-color="#1d201b" stop-opacity="0"/><stop offset="1" stop-color="#1d201b"/></linearGradient><linearGradient id="c" x2="0" y2="100%"><stop stop-color="#1d201b"/><stop offset="1" stop-color="#1d201b" stop-opacity="0"/></linearGradient><linearGradient id="b" x2="0" y2="100%"><stop stop-color="#4c5b3d" stop-opacity="0"/><stop offset="1" stop-color="#4c5b3d"/></linearGradient><linearGradient id="d" x2="0" y2="100%"><stop stop-color="#4c5b3d"/><stop offset="1" stop-color="#4c5b3d" stop-opacity="0"/></linearGradient><svg height="50%"><path fill="url(#a)" d="M0 0h1v36h-1z"/><path fill="url(#b)" d="M1 0h1v36h-1z"/><path fill="url(#a)" d="M2 0h1v36h-1z"/><rect fill="#1d201b" transform="translate(0 36)" width="1" height="100%"/><rect fill="#4c5b3d" transform="translate(0 36)" x="1" width="1" height="100%"/><rect fill="#1d201b" transform="translate(0 36)" x="2" width="1" height="100%"/></svg><svg y="50%" height="50%"><rect fill="url(#c)" transform="translate(0 -36)" y="100%" width="1" height="36"/><rect fill="url(#d)" transform="translate(0 -36)" x="1" y="100%" width="1" height="36"/><rect fill="url(#c)" transform="translate(0 -36)" x="2" y="100%" width="1" height="36"/><rect fill="#1d201b" transform="translate(0 -36)" width="1" height="100%"/><rect fill="#4c5b3d" transform="translate(0 -36)" x="1" width="1" height="100%"/><rect fill="#1d201b" transform="translate(0 -36)" x="2" width="1" height="100%"/></svg></svg>