<svg width="58" height="9" xmlns="http://www.w3.org/2000/svg"><path fill="#ec9e23" d="m9.33489,3.476362q0,0.122867 -0.145207,0.268074l-2.027308,1.977044l0.480299,2.792435q0.005585,0.039094 0.005585,0.111697q0,0.117282 -0.058641,0.198263t-0.170339,0.080981q-0.106113,0 -0.223395,-0.067018l-2.507607,-1.318029l-2.507607,1.318029q-0.122867,0.067018 -0.223395,0.067018q-0.117282,0 -0.175923,-0.080981t-0.058641,-0.198263q0,-0.033509 0.01117,-0.111697l0.480299,-2.792435l-2.032893,-1.977044q-0.139622,-0.150791 -0.139622,-0.268074q0,-0.20664 0.312753,-0.256904l2.803605,-0.407696l1.256596,-2.541116q0.106113,-0.22898 0.273659,-0.22898t0.273659,0.22898l1.256596,2.541116l2.803605,0.407696q0.312753,0.050264 0.312753,0.256904z"/><path fill="#ec9e23" d="m21.293224,3.476361q0,0.122867 -0.145206,0.268075l-2.027308,1.977043l0.480299,2.792436q0.005585,0.039094 0.005585,0.111698q0,0.117281 -0.058641,0.198263t-0.170338,0.08098q-0.106114,0 -0.223395,-0.067019l-2.507607,-1.318028l-2.507607,1.318028q-0.122867,0.067019 -0.223395,0.067019q-0.117283,0 -0.175924,-0.08098t-0.058641,-0.198263q0,-0.03351 0.011169,-0.111698l0.480299,-2.792436l-2.032893,-1.977043q-0.139621,-0.150792 -0.139621,-0.268075q0,-0.206639 0.312752,-0.256904l2.803605,-0.407695l1.256596,-2.541116q0.106114,-0.228979 0.27366,-0.228979t0.273658,0.228979l1.256596,2.541116l2.803605,0.407695q0.312752,0.050265 0.312752,0.256904z"/><path fill="#ec9e23" d="m33.293224,3.476361q0,0.122867 -0.145206,0.268075l-2.027308,1.977043l0.480299,2.792436q0.005585,0.039094 0.005585,0.111698q0,0.117281 -0.058641,0.198263t-0.170338,0.08098q-0.106114,0 -0.223395,-0.067019l-2.507607,-1.318028l-2.507607,1.318028q-0.122867,0.067019 -0.223395,0.067019q-0.117283,0 -0.175924,-0.08098t-0.058641,-0.198263q0,-0.03351 0.011169,-0.111698l0.480299,-2.792436l-2.032893,-1.977043q-0.139621,-0.150792 -0.139621,-0.268075q0,-0.206639 0.312752,-0.256904l2.803605,-0.407695l1.256596,-2.541116q0.106114,-0.228979 0.27366,-0.228979t0.273658,0.228979l1.256596,2.541116l2.803605,0.407695q0.312752,0.050265 0.312752,0.256904z"/><path fill="#ec9e23" d="m45.293224,3.476361q0,0.122867 -0.145206,0.268075l-2.027308,1.977043l0.480299,2.792436q0.005585,0.039094 0.005585,0.111698q0,0.117281 -0.058641,0.198263t-0.170338,0.08098q-0.106114,0 -0.223395,-0.067019l-2.507607,-1.318028l-2.507607,1.318028q-0.122867,0.067019 -0.223395,0.067019q-0.117283,0 -0.175924,-0.08098t-0.058641,-0.198263q0,-0.03351 0.011169,-0.111698l0.480299,-2.792436l-2.032893,-1.977043q-0.139621,-0.150792 -0.139621,-0.268075q0,-0.206639 0.312752,-0.256904l2.803605,-0.407695l1.256596,-2.541116q0.106114,-0.228979 0.27366,-0.228979t0.273658,0.228979l1.256596,2.541116l2.803605,0.407695q0.312752,0.050265 0.312752,0.256904z"/><path fill="#ec9e23" d="m57.293224,3.476361q0,0.122867 -0.145206,0.268075l-2.027308,1.977043l0.480299,2.792436q0.005585,0.039094 0.005585,0.111698q0,0.117281 -0.058641,0.198263t-0.170338,0.08098q-0.106114,0 -0.223395,-0.067019l-2.507607,-1.318028l-2.507607,1.318028q-0.122867,0.067019 -0.223395,0.067019q-0.117283,0 -0.175924,-0.08098t-0.058641,-0.198263q0,-0.03351 0.011169,-0.111698l0.480299,-2.792436l-2.032893,-1.977043q-0.139621,-0.150792 -0.139621,-0.268075q0,-0.206639 0.312752,-0.256904l2.803605,-0.407695l1.256596,-2.541116q0.106114,-0.228979 0.27366,-0.228979t0.273658,0.228979l1.256596,2.541116l2.803605,0.407695q0.312752,0.050265 0.312752,0.256904z"/></svg>
