<svg xmlns="http://www.w3.org/2000/svg" width="45" height="45" viewBox="0 0 45 45"><path fill-rule="evenodd" clip-rule="evenodd" fill="#C9C9C9" d="M22.575 0c-12.248-.072-22.522 9.836-22.575 22.375-.103 12.306 9.864 22.521 22.327 22.625 12.247.102 22.583-9.859 22.672-22.384.084-11.875-9.486-22.539-22.424-22.616zm-.092 40.523c-9.894-.014-17.979-8.089-18.01-17.992-.032-9.908 8.082-18.029 18.038-18.053 9.845-.025 18.059 8.178 18.011 17.987-.048 9.99-8.12 18.072-18.039 18.058zm1.711-30.755c-1.064-1.053-2.355-1.037-3.422.02-3.241 3.213-6.459 6.447-9.684 9.677-.172.172-.338.359-.463.566-.468.769-.505 1.581-.05 2.349.454.769 1.182 1.25 2.07 1.034.642-.156 1.314-.501 1.794-.954 1.736-1.639 3.396-3.359 5.088-5.046.195-.192.413-.362.742-.652v1.228c0 5.053-.001 10.107.004 15.16.001.426-.008.869.099 1.274.289 1.075 1.306 1.665 2.505 1.515 1.084-.135 1.835-1.02 1.839-2.266.016-4.166.007-8.33.007-12.496v-4.423c.3.255.443.363.568.487 1.821 1.817 3.625 3.654 5.467 5.449 1.063 1.034 2.432 1.044 3.345.1.89-.92.856-2.255-.159-3.28-3.235-3.263-6.482-6.512-9.75-9.742z" opacity=".5"/></svg>